# xmcd
#
# Track frame offsets: 
#        150
#        5773
#        12005
#        18139
#        24574
#        29283
#        35931
#        42560
#        47073
#        52623
#        58564
#        65114
#        71444
#        77676
#        82069
#        88024
#        94099
#        99779
#        105520
#
# Disc length: 1482 seconds
#
# Revision: 1
# Processed by: cddbd v1.5.2PL0 Copyright (c) Steve Scherf et al.
# Submitted via: ExactAudioCopy v0.99pb3
#
DISCID=e805c813
DTITLE=Various Artist - 555CD55 Bonus Disc
DYEAR=2003
DGENRE=555 Recordings
TTITLE0=Boyracer - Concede
TTITLE1=Transistor6 - Green Fields
TTITLE2=Heavenly Fire - Across The Bows
TTITLE3=The Haggard - Wouldn't Want To Be Your Girl
TTITLE4=Jonatan Svrad - Untitled
TTITLE5=Jen Schande - I Walk With Fahrenheit
TTITLE6=The Bluebear - Lazy Daydreaming Bluebear
TTITLE7=James Earthenware - James Makes A New Friend
TTITLE8=Sisterhood Of Convoluted Thinkers - Slow, Classic
TTITLE9=Jen Turrell - Fog Horn
TTITLE10=Parker And Lily - What's An Oubliette?
TTITLE11=The Downs - Kiss The Horse
TTITLE12=Shanks Pony - Munki
TTITLE13=Possum Moods - Dark Age
TTITLE14=Kimonophonic - 555 Days A Year
TTITLE15=Your Favorite Horse - Up (acoustic)
TTITLE16=Beachbuggy - Japanese Radio Ad
TTITLE17=Cavil - What I Did After I Left Number 16
TTITLE18=Mary And Almond - 1 Min 20
EXTD=
EXTT0=
EXTT1=
EXTT2=
EXTT3=
EXTT4=
EXTT5=
EXTT6=
EXTT7=
EXTT8=
EXTT9=
EXTT10=
EXTT11=
EXTT12=
EXTT13=
EXTT14=
EXTT15=
EXTT16=
EXTT17=
EXTT18=
PLAYORDER=
